<?xml version="1.0"?>
<svg xmlns="http://www.w3.org/2000/svg" xmlns:xlink="http://www.w3.org/1999/xlink" version="1.1" id="Capa_1" x="0px" y="0px" viewBox="0 0 60.001 60.001" style="enable-background:new 0 0 60.001 60.001;" xml:space="preserve" width="512px" height="512px" class=""><g><g>
	<path d="M59.693,52.636L47.849,32.33c-0.405-0.695-1.128-1.11-1.933-1.11c-0.805,0-1.528,0.415-1.933,1.11L32.137,52.636   c-0.409,0.7-0.412,1.539-0.008,2.242c0.404,0.703,1.129,1.123,1.94,1.123h23.691c0.811,0,1.536-0.42,1.939-1.123   C60.104,54.175,60.102,53.337,59.693,52.636z M57.966,53.882c-0.03,0.055-0.092,0.119-0.205,0.119H34.07   c-0.114,0-0.175-0.064-0.206-0.119s-0.056-0.14,0.001-0.238L45.71,33.338c0.057-0.098,0.143-0.118,0.206-0.118   c0.062,0,0.148,0.021,0.205,0.118l11.845,20.306C58.022,53.742,57.998,53.827,57.966,53.882z" data-original="#000000" class="active-path" data-old_color="#D3CECE" fill="#C1C1C1"/>
	<path d="M46,38.001c-0.552,0-1,0.447-1,1v8c0,0.553,0.448,1,1,1s1-0.447,1-1v-8C47,38.448,46.552,38.001,46,38.001z" data-original="#000000" class="active-path" data-old_color="#D3CECE" fill="#C1C1C1"/>
	<path d="M45.29,50.291C45.11,50.48,45,50.74,45,51.001c0,0.26,0.11,0.52,0.29,0.71c0.19,0.18,0.45,0.29,0.71,0.29   c0.26,0,0.52-0.11,0.71-0.29c0.18-0.19,0.29-0.45,0.29-0.71c0-0.271-0.11-0.521-0.29-0.71C46.33,49.921,45.67,49.921,45.29,50.291z   " data-original="#000000" class="active-path" data-old_color="#D3CECE" fill="#C1C1C1"/>
	<path d="M45.916,28.219c1.857,0,3.59,0.996,4.525,2.601l6.297,10.795l0.788-0.344l0.815-1.769c1.101-2.39,1.66-4.919,1.66-7.517   v-14c0-9.917-8.075-17.985-18-17.985H18c-9.925,0-18,8.068-18,17.985v14c0,9.59,7.538,17.452,17,17.973v8.344   c0,0.937,0.764,1.698,1.703,1.698c0.449,0,0.873-0.177,1.195-0.498l1.876-1.877c2.119-2.119,4.557-3.816,7.211-5.081   c0.117-0.493,0.299-0.973,0.561-1.421l11.845-20.306C42.325,29.216,44.059,28.219,45.916,28.219z" data-original="#000000" class="active-path" data-old_color="#D3CECE" fill="#C1C1C1"/>
</g></g> </svg>
